<svg xmlns="http://www.w3.org/2000/svg" xmlns:xlink="http://www.w3.org/1999/xlink" version="1.1" id="Layer_1" x="0px" y="0px" enable-background="new 0 0 1024 1024" xml:space="preserve" viewBox="367.3 350.78 283.04 340.71">
<path fill="#000000" opacity="1.000000" stroke="none" d=" M568.000000,691.254150   C503.178558,691.284790 438.857147,691.314697 374.535706,691.344482   C373.535889,691.344971 372.531433,691.281738 371.537109,691.355591   C367.592041,691.648560 366.534485,690.177795 367.823914,686.317383   C374.734192,665.629395 381.514984,644.898010 388.295959,624.166992   C408.225006,563.239136 428.134186,502.304871 448.048737,441.372314   C455.652374,418.107361 463.301483,394.856934 470.790253,371.555023   C471.855072,368.241791 473.666534,366.230652 476.838989,364.875824   C486.640167,360.690186 496.356110,356.303741 506.080597,351.940521   C508.284180,350.951813 510.554199,350.781097 512.907410,350.782684   C536.902954,350.799042 560.898499,350.780579 584.894043,350.797241   C591.559021,350.801849 591.851746,351.185486 589.657532,357.692535   C570.769775,413.707428 551.842102,469.708862 532.954163,525.723694   C526.251343,545.601929 519.619202,565.504089 512.972778,585.401306   C512.295044,587.430176 511.328033,589.408386 511.578766,592.541565   C557.728760,592.541565 603.899536,592.541565 649.772583,592.541565   C651.172058,595.890625 649.629272,597.963013 648.920105,600.059753   C641.078125,623.245789 633.090759,646.382751 625.266174,669.574646   C624.077393,673.098083 622.257141,675.641357 618.856140,677.359375   C614.253662,679.684204 609.620667,682.102112 605.460571,685.114929   C598.345154,690.268005 590.639099,692.105347 581.990784,691.315308   C577.529175,690.907715 572.999146,691.249939 568.000000,691.254150  M393.001282,641.009766   C393.001282,641.009766 393.020355,640.990845 392.543243,641.517395   C389.859802,649.228516 387.176392,656.939575 384.492950,664.650696   C387.815247,663.729919 390.126495,662.159851 392.517334,660.722229   C428.777344,638.918030 463.327209,614.469421 499.058075,591.847839   C501.402008,590.363831 502.896637,588.397339 503.799194,585.695129   C510.072784,566.911560 516.490295,548.176147 522.832153,529.415405   C541.328308,474.699219 559.815491,419.980042 578.275940,365.251831   C578.841614,363.574890 579.811768,361.893799 579.143799,360.025757   C577.696167,358.705505 575.961304,359.008759 574.339905,359.008179   C554.353088,359.001007 534.366211,359.031555 514.379395,359.041321   C512.030090,359.042450 509.765442,359.260620 507.573730,360.283691   C499.880280,363.875183 492.191376,367.483398 484.407654,370.871460   C480.989471,372.359344 478.897980,374.483551 478.790253,378.833069   C478.206635,380.456604 477.622986,382.080139 476.606384,384.319916   C476.187134,385.224579 475.672394,386.097809 475.362579,387.038513   C464.013306,421.494812 452.626373,455.938873 441.364929,490.423889   C428.192657,530.760498 415.036865,571.103149 402.091400,611.512817   C398.951477,621.314148 394.859222,630.836670 393.001282,641.009766  M634.886658,614.464050   C636.062134,610.364624 638.169861,606.512329 638.442322,602.176147   C636.813965,600.796570 635.098450,601.084534 633.480225,601.083374   C592.317810,601.054565 551.155396,601.049927 509.993011,601.009094   C507.254211,601.006348 504.818237,601.529175 502.460968,603.097839   C472.783447,622.847229 443.056274,642.521912 413.366730,662.253174   C412.244843,662.998779 410.526276,663.360718 410.508667,665.485657   C411.725555,665.583923 412.858551,665.755920 413.991486,665.755371   C480.151184,665.721008 546.310852,665.641479 612.470520,665.702393   C616.406738,665.705994 618.017883,664.099121 619.173523,660.618713   C624.211975,645.445251 629.471497,630.345276 634.886658,614.464050  z"/>
<path fill="#000000" opacity="1.000000" stroke="none" d=" M478.855530,378.584564   C480.230560,374.577576 482.988159,372.698029 486.670044,371.283356   C492.409668,369.078064 497.878815,366.172546 503.482941,363.608185   C504.934753,362.943848 506.313324,361.758911 508.177704,362.568695   C509.315399,364.635529 508.062805,366.443268 507.468811,368.258331   C495.554230,404.664886 483.589691,441.055084 471.667389,477.459076   C454.197968,530.800720 436.706085,584.135193 419.380859,637.523743   C417.831024,642.299622 415.330322,645.574463 410.944580,647.990784   C404.678680,651.443054 398.711334,655.436218 392.602539,659.175598   C391.364380,659.933472 390.201782,661.061584 387.797180,660.111328   C389.493561,654.054382 391.213135,647.914734 392.976532,641.382935   C393.020355,640.990845 393.001282,641.009766 393.207306,640.733887   C394.042450,638.739990 394.720642,637.038208 395.293427,635.301697   C407.439453,598.479980 419.611664,561.666870 431.698608,524.825684   C442.383087,492.259277 453.040253,459.683533 463.567627,427.066101   C468.216156,412.663239 473.232422,398.369781 477.039368,383.703674   C477.622986,382.080139 478.206635,380.456604 478.855530,378.584564  z"/>
</svg>